<svg width="790" height="592" viewBox="0 0 790 592" fill="none" xmlns="http://www.w3.org/2000/svg">
<path d="M52.9981 434.035H759.715C759.715 434.035 784.194 277.036 675.578 180.116C566.972 83.1859 409.409 158.271 409.409 158.271C409.409 158.271 325.884 30.6557 192.188 69.5304C-26.7698 133.21 52.9981 434.035 52.9981 434.035Z" fill="url(#paint0_linear_33_636)"/>
<path opacity="0.2" d="M245.475 158.804H337.166C342.147 156.229 345.559 151.009 345.559 144.991C345.559 137.196 339.839 130.743 332.393 129.638C332.403 129.382 332.413 129.135 332.413 128.878C332.413 119.762 324.878 112.371 315.587 112.371C314.611 112.371 313.664 112.45 312.737 112.608C308.733 105.652 300.912 100.926 291.917 100.926C281.443 100.926 272.557 107.339 269.441 116.219C268.454 116.022 267.448 115.914 266.413 115.914C257.477 115.914 250.238 123.6 250.238 133.082C250.238 134.147 250.327 135.193 250.505 136.199C243.739 136.634 238.403 141.814 238.403 148.138C238.393 152.785 241.273 156.811 245.475 158.804Z" fill="white"/>
<path d="M235.76 102.86C235.76 103.314 235.425 103.669 235.011 103.669C234.596 103.669 234.261 103.304 234.261 102.86C234.261 102.406 234.596 102.051 235.011 102.051C235.425 102.051 235.76 102.406 235.76 102.86ZM200.225 165.602C200.225 166.056 199.89 166.411 199.476 166.411C199.062 166.411 198.726 166.046 198.726 165.602C198.726 165.148 199.062 164.793 199.476 164.793C199.89 164.783 200.225 165.148 200.225 165.602ZM143.703 155.765C143.703 156.219 143.368 156.574 142.954 156.574C142.54 156.574 142.204 156.209 142.204 155.765C142.204 155.311 142.54 154.956 142.954 154.956C143.378 154.956 143.703 155.321 143.703 155.765Z" fill="white"/>
<path opacity="0.8" d="M187.631 157.699C205.334 157.699 219.684 143.342 219.684 125.632C219.684 107.922 205.334 93.5656 187.631 93.5656C169.929 93.5656 155.578 107.922 155.578 125.632C155.578 143.342 169.929 157.699 187.631 157.699Z" fill="url(#paint1_linear_33_636)"/>
<path fill-rule="evenodd" clip-rule="evenodd" d="M52.9981 434.035C52.9981 434.035 5.97368 445.579 17.5424 490.689C23.5881 514.261 67.8017 519.707 129.797 519.707C131.247 519.707 132.697 519.697 134.137 519.687C135.458 520.131 136.8 520.565 138.161 520.97C211.025 542.548 310.498 521.009 400.464 493.925C470.902 472.722 630.369 476.53 680.145 476.53C852.285 476.53 759.725 434.045 759.725 434.045H52.9981V434.035Z" fill="url(#paint2_linear_33_636)"/>
<path opacity="0.5" d="M736.923 464.523H309.896V433.127H705.541L736.923 464.523Z" fill="#000640"/>
<path opacity="0.5" fill-rule="evenodd" clip-rule="evenodd" d="M336.525 491.163C336.525 500.625 267.044 508.291 181.339 508.291C95.6337 508.291 26.1524 500.625 26.1524 491.163C26.1524 481.701 95.6337 474.034 181.339 474.034C267.044 474.034 336.525 481.71 336.525 491.163Z" fill="#000640"/>
<path opacity="0.3" d="M86.3925 187.644L315.597 170.516L310.843 425.51L72.1313 247.584" fill="white"/>
<path d="M713.273 415.663C713.273 421.09 708.874 425.5 703.44 425.5H317.984C312.559 425.5 308.151 421.099 308.151 415.663V180.599C308.151 175.173 312.55 170.762 317.984 170.762H703.45C708.874 170.762 713.283 175.163 713.283 180.599V415.663H713.273Z" fill="url(#paint3_linear_33_636)"/>
<path fill-rule="evenodd" clip-rule="evenodd" d="M308.151 183.313H713.273V214.462H308.151V183.313Z" fill="#222629"/>
<path d="M661.297 199.159C661.297 201.161 660.502 203.08 659.088 204.496C657.673 205.911 655.754 206.707 653.753 206.707H384.141C379.979 206.707 376.597 203.322 376.597 199.159C376.597 194.985 379.97 191.611 384.141 191.611H653.753C657.915 191.611 661.297 194.995 661.297 199.159Z" fill="white"/>
<path d="M447.301 323.696H555.019V456.876H447.301V323.696Z" fill="#9DC136"/>
<path d="M498.832 379.906H498.734L492.836 382.708L491.643 377.282L499.819 373.473H505.815V404.395H498.823V379.906H498.832Z" fill="white"/>
<path opacity="0.8" d="M555.66 323.834H447.271L456.335 301.486H546.892L555.66 323.834Z" fill="url(#paint4_linear_33_636)"/>
<path d="M321.919 384.376H421.52V456.886H321.919V384.376Z" fill="#C17036"/>
<path d="M360.905 430.946C362.187 431.607 365.136 432.851 368.085 432.851C371.843 432.851 373.746 431.045 373.746 428.717C373.746 425.668 370.699 424.296 367.513 424.296H364.564V419.106H367.365C369.791 419.057 372.878 418.159 372.878 415.535C372.878 413.68 371.36 412.298 368.312 412.298C365.787 412.298 363.124 413.394 361.842 414.153L360.373 408.924C362.227 407.73 365.935 406.595 369.93 406.595C376.537 406.595 380.196 410.069 380.196 414.301C380.196 417.587 378.342 420.152 374.535 421.484V421.583C378.244 422.244 381.242 425.056 381.242 429.101C381.242 434.577 376.439 438.573 368.588 438.573C364.594 438.573 361.221 437.527 359.406 436.383L360.905 430.946Z" fill="white"/>
<path opacity="0.8" d="M421.51 384.376H321.919L333.892 362.038H428.217L421.51 384.376Z" fill="url(#paint5_linear_33_636)"/>
<path d="M428.217 362.038V438.011C428.217 438.011 421.51 460.546 421.51 456.886V384.376L428.217 362.038Z" fill="black"/>
<path d="M579.734 357.242H679.336V456.886H579.734V357.242Z" fill="#C19A36"/>
<path d="M617.695 423.438V419.057L621.69 415.446C628.445 409.407 631.72 405.934 631.818 402.313C631.818 399.787 630.3 397.794 626.729 397.794C624.066 397.794 621.739 399.126 620.121 400.36L618.08 395.17C620.407 393.414 624.027 391.983 628.209 391.983C635.201 391.983 639.048 396.078 639.048 401.692C639.048 406.882 635.29 411.016 630.822 415.012L627.972 417.39V417.488H639.62V423.438H617.695Z" fill="white"/>
<path opacity="0.8" d="M679.247 357.242H579.823L568.057 334.904H671.485L679.247 357.242Z" fill="url(#paint6_linear_33_636)"/>
<path d="M568.057 334.904V438.672C568.057 438.672 579.734 459.885 579.734 456.886V355.289L568.057 334.904Z" fill="black"/>
<path opacity="0.2" d="M397.762 374.391C397.762 377.775 387.071 380.528 373.875 380.528C360.688 380.528 349.988 377.785 349.988 374.391C349.988 371.006 360.678 368.263 373.875 368.263C387.061 368.263 397.762 371.006 397.762 374.391Z" fill="#000640"/>
<path opacity="0.2" d="M499.74 321.111C517.426 321.111 531.763 318.553 531.763 315.398C531.763 312.243 517.426 309.685 499.74 309.685C482.054 309.685 467.716 312.243 467.716 315.398C467.716 318.553 482.054 321.111 499.74 321.111Z" fill="#000640"/>
<path opacity="0.2" d="M651.602 347.494C651.602 351.174 640.409 354.154 626.601 354.154C612.794 354.154 601.6 351.174 601.6 347.494C601.6 343.814 612.794 340.834 626.601 340.834C640.409 340.834 651.602 343.814 651.602 347.494Z" fill="#000640"/>
<path d="M413.541 251.482C413.541 251.482 411.421 253.662 411.342 253.899C411.263 254.126 410.021 250.288 410.021 250.288L413.541 251.482Z" fill="#EEA886"/>
<path d="M410.021 250.288C410.021 250.288 409.291 247.92 409.192 247.555C409.094 247.19 409.429 246.193 409.912 245.078C410.395 243.963 411.559 242.681 411.756 242.641C411.963 242.602 412.151 242.473 412.644 242.7C413.127 242.927 413.423 243.391 413.423 243.391C413.423 243.391 414.153 243.391 414.469 243.983C414.469 243.983 415.159 244.013 415.406 244.743C415.406 244.743 416.076 244.792 416.214 245.335C416.214 245.335 415.879 246.341 415.859 246.746C415.839 247.15 414.646 249.656 413.541 251.491C413.541 251.482 412.259 252.389 410.021 250.288Z" fill="#EEA886"/>
<path d="M411.638 242.927C411.638 242.927 410.474 245.779 410.908 246.025C411.342 246.272 411.658 246.094 411.658 246.094L411.707 247.486C411.707 247.486 412.259 248.393 413.078 247.525C413.078 247.525 413.512 248.423 414.202 247.486C414.202 247.486 414.755 247.949 415.149 247.574C415.544 247.199 416.214 245.335 416.214 245.335C416.214 245.335 416.185 244.871 415.406 244.743C415.406 244.743 415.218 244.032 414.469 243.983C414.469 243.983 414.222 243.43 413.423 243.391C413.423 243.391 412.782 242.207 411.766 242.651C411.776 242.641 411.687 242.809 411.638 242.927Z" fill="#EEA886"/>
<path d="M409.222 247.466C409.222 247.466 410.829 246.085 412.033 245.719C412.309 245.631 412.585 245.601 412.762 245.828C412.94 246.045 412.851 246.588 412.18 247.229C411.52 247.861 410.948 248.985 410.948 248.985C410.948 248.985 410.08 249.429 409.222 247.466Z" fill="#EEA886"/>
<path d="M360.402 368.185C360.402 368.185 358.992 369.191 358.213 369.901C357.434 370.602 356.369 371.371 355.718 373.177C355.057 375.002 356.102 376.305 357.858 376.413C359.623 376.522 362.326 375.19 362.582 373.572C362.838 371.973 364.919 372.161 365.186 371.026C365.452 369.891 365.097 368.49 365.097 368.49L360.402 368.185Z" fill="#131C24"/>
<path d="M360.639 366.862L360.402 368.185C360.402 368.185 361.132 369.526 365.097 368.481L364.89 367.178L360.639 366.862Z" fill="#EEA886"/>
<path d="M365.107 368.481C365.107 368.481 364.209 368.599 363.578 368.698C362.937 368.796 361.684 367.987 360.412 368.185L360.807 369.793C360.797 369.793 365.018 369.003 365.107 368.481Z" fill="#D6C7B2"/>
<path d="M385.739 368.185C385.739 368.185 387.149 369.191 387.929 369.901C388.708 370.602 389.773 371.371 390.424 373.177C391.085 375.002 390.049 376.305 388.284 376.413C386.518 376.522 383.816 375.19 383.55 373.572C383.293 371.973 381.222 372.161 380.946 371.026C380.68 369.891 381.035 368.49 381.035 368.49L385.739 368.185Z" fill="#131C24"/>
<path d="M385.502 366.862L385.739 368.185C385.739 368.185 385.009 369.526 381.045 368.481L381.252 367.178L385.502 366.862Z" fill="#EEA886"/>
<path d="M387.159 294.944C387.159 294.944 373.48 292.251 366.389 294.796C366.093 294.905 365.807 295.023 365.541 295.142C365.541 295.142 365.521 295.26 365.491 295.487C365.422 296.01 365.274 297.105 365.077 298.595C365.048 298.842 365.008 299.108 364.969 299.374C363.963 307.021 362.454 318.131 362.158 323.558C361.783 330.671 361.389 331.688 361.389 333.02C361.389 336.621 360.126 366.991 360.126 366.991C360.126 366.991 362.276 368.145 365.58 366.991C365.58 366.991 369.486 336.868 370.166 334.638C370.847 332.408 375.65 312.093 376.498 312.004C377.346 311.905 379.703 333.474 379.881 336.404C380.058 339.334 379.891 366.527 380.857 367.01C381.824 367.494 385.759 367.543 386.045 366.576C386.045 366.576 387.199 338.93 387.199 336.029C387.199 333.118 388.136 310.474 388.057 309.507C388.047 309.507 388.313 302.394 387.159 294.944Z" fill="url(#paint7_linear_33_636)"/>
<path d="M380.778 255.862C380.778 255.862 386.725 257.609 389.99 258.447C392.633 259.128 397.239 261.506 402.417 262.325C403.699 262.522 409.015 249.883 409.015 249.883C409.015 249.883 414.331 251.136 414.36 251.294C414.429 251.738 407.427 268.571 405.366 269.39C403.748 270.041 389.576 268.156 389.576 268.156C389.576 268.156 388.037 289.685 388.037 292.33C388.037 294.974 388.077 301.733 388.077 301.733C388.077 301.733 384.319 303.992 375.66 304.229C375.66 304.229 362.878 304.278 364.17 299.69C365.126 296.306 365.186 273.336 364.929 273.208C364.673 273.08 360.037 278.891 360.481 280.006C360.935 281.121 372.938 285.137 372.938 285.137C372.938 285.137 373.293 286.429 371.429 289.36C371.429 289.36 353.499 284.121 353.439 283.015C353.37 281.92 360.895 260.589 363.351 259.474C366.892 257.865 376.133 255.339 376.133 255.339L380.778 255.862Z" fill="#544E57"/>
<path d="M381.045 368.481C381.045 368.481 381.942 368.599 382.573 368.698C383.214 368.796 384.467 367.987 385.739 368.185L385.354 369.793C385.345 369.793 381.133 369.003 381.045 368.481Z" fill="#D6C7B2"/>
<path d="M376.666 284.555C376.666 284.555 377.958 284.515 378.362 284.456C378.756 284.397 378.5 285.245 378.037 285.403C377.573 285.571 376.666 284.555 376.666 284.555Z" fill="#EEA886"/>
<path d="M372.277 256.464C372.277 256.464 372.149 261.634 377.464 261.506C382.978 261.378 381.824 256.168 381.824 256.168C381.824 256.168 377.642 254.284 372.277 256.464Z" fill="#353535"/>
<path d="M380.591 251.827C380.591 251.827 380.117 254.451 380.936 256.247C380.936 256.247 381.774 260.421 377.504 260.608C373.233 260.796 373.273 256.099 373.273 256.099C373.273 256.099 374.151 255.586 373.47 251.847C372.79 248.107 380.591 251.827 380.591 251.827Z" fill="#EEA886"/>
<path d="M377.997 236.642C377.997 236.642 383.471 237.52 382.632 246.292C381.804 255.053 376.971 254.343 376.646 254.333C376.32 254.323 371.803 254.491 371.448 243.786C371.448 243.795 371.3 235.873 377.997 236.642Z" fill="#EEA886"/>
<path d="M382.711 243.815C382.711 243.815 383.313 243.164 383.53 243.825C383.747 244.486 382.751 247.347 382.672 247.584C382.672 247.584 382.563 247.841 382.415 247.703C382.287 247.565 382.711 243.815 382.711 243.815Z" fill="#EEA886"/>
<path d="M371.586 243.707C371.586 243.707 371.005 243.036 370.768 243.697C370.531 244.358 371.508 247.367 371.547 247.476C371.547 247.476 371.655 247.732 371.794 247.594C371.941 247.456 371.586 243.707 371.586 243.707Z" fill="#EEA886"/>
<path d="M382.711 245.167L381.932 246.242C381.932 246.242 381.952 243.894 381.834 243.519C381.705 243.154 381.981 241.862 381.873 241.605C381.765 241.339 378.135 242.325 372.168 241.723C372.168 241.723 372.829 243.845 372.444 243.993C372.06 244.141 372.247 246.746 372.247 246.746L371.606 246.006C371.606 246.006 370.876 241.556 370.945 240.816C371.044 239.829 370.709 235.211 379.092 236.011C380.048 236.099 380.976 236.455 381.745 237.057C382.613 237.727 383.49 238.783 383.412 240.224C383.303 242.108 382.711 245.167 382.711 245.167Z" fill="black"/>
<path d="M377.415 290.751C377.415 290.751 376.853 290.889 376.577 290.83C376.577 290.83 376.084 290.682 375.729 290.593C375.61 290.563 375.512 290.544 375.453 290.544C375.176 290.514 374.565 290.534 373.924 290.287C373.283 290.041 371.103 288.926 371.103 288.926L371.724 286.903L372.198 285.295C372.198 285.295 375.877 284.318 376.498 284.476L376.675 284.535C377.188 284.722 377.494 285.087 377.75 285.216C377.849 285.265 378.756 285.808 378.806 286.123C378.875 286.558 378.747 286.883 378.52 287.09C378.52 287.09 378.609 287.949 378.293 288.432C378.293 288.432 378.401 289.222 377.839 289.715C377.829 289.715 377.849 290.524 377.415 290.751Z" fill="#EEA886"/>
<path d="M372.938 285.028C372.938 285.028 372.967 287.742 371.3 289.764C371.3 289.764 358.262 285.265 356.694 284.653C355.126 284.032 362.395 264.723 362.395 264.723L367.74 266.548L364.87 271.985C364.87 271.985 363.45 275.023 360.491 280.036C360.481 280.016 362.306 281.624 372.938 285.028Z" fill="#544E57"/>
<path d="M367.878 257.826C367.878 257.826 368.776 257.362 369.614 257.273C369.614 257.273 368.785 257.658 367.878 257.826ZM385.394 257.194C385.394 257.194 386.38 257.333 387.12 257.678C387.12 257.678 385.917 257.5 385.394 257.194Z" fill="#E55353"/>
<path d="M483.851 309.448C483.851 309.448 482.973 311.422 482.234 312.211C481.494 312.99 478.654 314.391 478.644 316.72C478.624 319.246 483.427 318.545 485.301 318.447C487.175 318.358 487.323 317.006 488.112 315.575C488.901 314.145 489.7 314.391 489.848 313.237C489.996 312.083 489.246 309.507 489.246 309.507L483.851 309.448Z" fill="#131C24"/>
<path d="M483.772 308.718L483.634 309.912C483.634 309.912 486.583 310.899 489.374 310.011L489.216 308.373L483.772 308.718Z" fill="#3C568A"/>
<path d="M518.459 309.448C518.459 309.448 519.337 311.422 520.076 312.211C520.816 312.99 523.656 314.391 523.666 316.72C523.686 319.246 518.883 318.545 517.009 318.447C515.135 318.358 514.987 317.006 514.198 315.575C513.409 314.145 512.61 314.391 512.462 313.237C512.314 312.083 513.064 309.507 513.064 309.507L518.459 309.448Z" fill="#131C24"/>
<path d="M518.538 308.718L518.676 309.912C518.676 309.912 515.727 310.899 512.936 310.011L513.094 308.373L518.538 308.718Z" fill="#3C568A"/>
<path d="M516.989 276.888C516.989 279.996 519.889 308.383 519.889 308.383C519.553 309.419 512.433 309.29 511.318 308.777C510.204 308.264 506.979 280.125 506.772 276.987C506.565 273.849 501.929 246.588 500.953 246.686C499.976 246.785 495.361 276.01 494.582 278.398C493.802 280.786 490.282 309.044 490.282 309.044C487.836 310.395 482.027 308.708 482.027 308.708C482.027 308.708 483.24 279.69 483.378 278.812C483.585 277.52 483.368 274.017 483.93 266.262C484.433 259.326 486.268 244.22 487.421 236.04C487.461 235.754 487.5 235.468 487.54 235.202C487.767 233.613 487.934 232.439 488.023 231.877L488.082 231.502C488.398 231.363 488.723 231.245 489.059 231.127C497.195 228.403 512.689 228.571 512.689 228.571L512.916 231.492C512.936 231.659 512.965 231.916 513.015 232.251C513.103 232.972 513.241 234.047 513.389 235.29V235.32C513.399 235.359 513.399 235.399 513.409 235.438C513.952 239.878 514.731 246.371 514.652 247.042C514.553 248.087 516.989 273.77 516.989 276.888Z" fill="url(#paint8_linear_33_636)"/>
<path d="M518.143 184.921L514.149 199.267C514.011 199.731 513.853 200.303 513.675 200.974L513.666 201.004C513.666 201.014 513.666 201.014 513.656 201.023C512.985 203.579 512.166 207.476 511.92 211.808C511.752 214.758 512.305 226.637 512.305 226.637C512.305 226.637 506.259 228.897 497.205 228.325C497.205 228.325 487.471 228.098 488.26 222.128C490.36 206.322 488.309 199.8 488.033 198.211C488.033 198.211 486.879 190.93 485.942 184.497C488.684 183.481 500.213 179.149 500.213 179.149L506.279 179.603C506.269 179.583 515.48 181.853 518.143 184.921Z" fill="url(#paint9_linear_33_636)"/>
<path d="M505.983 179.485C505.637 178.616 505.835 174.867 505.835 174.867C505.835 174.867 498.31 172.864 498.507 174.334C498.684 175.617 498.211 178.952 498.093 179.781C497.886 179.869 497.669 179.948 497.461 180.057C497.461 180.057 499.049 182.819 502.057 183.076C503.971 183.244 505.608 180.817 506.377 179.623C506.377 179.633 506.239 179.573 505.983 179.485Z" fill="#FFD8C5"/>
<path d="M503.241 158.843C503.241 158.843 509.158 159.84 508.152 169.115C507.146 178.389 501.919 177.57 501.574 177.551C501.229 177.541 496.317 177.659 496.061 166.332C496.071 166.332 495.992 157.955 503.241 158.843Z" fill="#FFD8C5"/>
<path d="M508.281 166.49C508.281 166.49 508.941 165.799 509.168 166.51C509.395 167.22 508.123 170.338 508.202 170.476C508.202 170.476 508.083 170.743 507.926 170.595C507.768 170.447 508.281 166.49 508.281 166.49Z" fill="#FFD8C5"/>
<path d="M496.13 166.243C496.13 166.243 495.499 165.533 495.242 166.224C494.986 166.914 495.933 170.042 496.051 170.23C496.051 170.23 496.258 170.545 496.416 170.407C496.574 170.259 496.13 166.243 496.13 166.243Z" fill="#562300"/>
<path d="M502.057 182.04L503.428 184.132C503.428 184.132 501.988 184.951 500.647 184.082L502.057 182.04Z" fill="#1B2833"/>
<path d="M487.924 229.39C487.924 229.39 495.351 232.133 512.147 229.548L511.92 226.509C511.92 226.509 502.186 229.38 488.22 226.923L487.924 229.39Z" fill="#003862"/>
<path d="M506.397 179.613C506.397 179.613 504.661 192.607 504.898 203.806C505.135 214.995 508.764 235.991 508.764 235.991C508.764 235.991 515.244 235.359 516.851 233.337C516.851 233.337 513.133 213.13 513.241 210.14C513.35 207.151 518.005 184.635 518.005 184.635C518.005 184.635 516.181 182.198 506.397 179.613ZM497.097 180.294C497.097 180.294 497.077 192.607 496.84 203.806C496.603 214.995 495.124 235.833 495.124 235.833C495.124 235.833 487.53 234.748 485.922 232.725C485.922 232.725 488.595 213.12 488.496 210.13C488.388 207.141 485.064 184.842 485.064 184.842C485.064 184.842 486.218 183.204 497.097 180.294Z" fill="#003862"/>
<path d="M498.053 227.446H502.62V230.841H498.053V227.446Z" fill="#3E5E78"/>
<path d="M501.407 183.609C501.407 183.609 499.365 190.565 499.187 204.388C499.01 218.211 499.434 222.168 499.434 222.168L501.022 225.315L503.142 222.03C503.142 222.03 502.462 190.229 502.856 183.846L501.407 183.609Z" fill="#003862"/>
<path d="M509.918 203.056C509.918 203.056 512.936 201.537 513.35 201.27C513.764 201.004 518.804 200.254 519.445 200.274C520.076 200.293 520.106 200.797 519.928 200.984C519.751 201.162 514.711 201.99 514.622 202.109C514.533 202.227 515.046 202.188 515.046 202.188C515.046 202.188 520.471 202.109 520.855 202.464C521.24 202.829 520.796 203.174 520.579 203.263C520.579 203.263 521.072 203.835 520.5 204.062C519.928 204.299 519.159 204.447 519.159 204.447C519.159 204.447 519.879 204.812 519.406 205.148C518.932 205.473 513.182 207.259 513.182 207.259C513.182 207.259 511.052 203.174 509.918 203.056Z" fill="#FFD8C5"/>
<path d="M520.283 213.455C516.368 214.393 507.304 212.873 503.852 212.114C503.123 211.956 502.294 211.788 501.446 211.62C500.036 211.344 498.556 211.078 497.363 210.861C496.522 210.708 495.681 210.56 494.838 210.417C494.838 210.417 513.853 206.144 514.553 206.144C515.253 206.144 512.798 195.025 512.798 195.025C512.798 195.025 510.352 185.71 511.624 182.05C511.624 182.05 516.447 183.51 518.015 184.625C518.883 185.247 519.524 189.292 520.116 192.035C520.865 195.518 522.621 203.441 522.818 205.118C522.986 206.638 524.209 212.518 520.283 213.455Z" fill="#003862"/>
<path d="M491.189 182.089C491.189 182.089 485.35 184.082 485.064 184.842C483.881 188.049 483.329 191.561 482.954 192.962C482.49 194.679 481.435 199.82 481.159 201.497C480.814 203.638 480.143 211.206 480.439 212.37C480.804 213.84 484.275 213.742 486.149 213.446C488.023 213.15 514.04 206.815 514.04 206.815C514.04 206.815 512.561 201.971 512.482 201.546C512.482 201.546 492.422 203.835 489.867 204.388C488.408 204.704 488.092 204.822 488.092 204.822C488.092 204.822 492.52 186.667 491.189 182.089Z" fill="#003862"/>
<path d="M494.641 203.766C494.641 203.766 492.027 201.635 491.672 201.28C491.317 200.925 486.563 199.109 485.942 199.001C485.321 198.882 485.212 199.386 485.262 199.632C485.34 200.066 490.193 201.694 490.252 201.833C490.311 201.971 489.818 201.813 489.818 201.813C489.818 201.813 484.532 200.56 484.088 200.836C483.644 201.112 483.989 201.537 484.187 201.675C484.187 201.675 483.585 202.119 484.088 202.474C484.601 202.829 485.321 203.135 485.321 203.135C485.321 203.135 484.542 203.342 484.936 203.766C485.321 204.191 488.102 204.822 488.102 204.822C488.102 204.822 493.517 203.638 494.641 203.766Z" fill="#FFD8C5"/>
<path d="M508.271 159.011C507.797 158.429 507.077 158.469 506.574 158.587C506.14 158.291 505.598 157.955 505.598 157.955C503.369 156.663 499.375 157.294 497.905 157.926C495.736 159.702 495.568 162.721 495.676 164.389C495.716 164.783 495.765 165.178 495.814 165.563V165.573C496.012 167.23 496.209 168.671 496.209 168.671L496.899 169.47C496.899 169.47 496.722 166.707 497.146 166.559C497.373 166.48 497.432 165.918 497.432 165.425C497.432 165 497.392 164.615 497.392 164.615C501.811 162.583 506.772 164.033 506.88 164.31C506.949 164.487 507.048 165.02 507.146 165.484C507.206 165.77 507.265 166.026 507.314 166.174C507.442 166.569 507.393 169.055 507.393 169.055L508.251 167.931C508.251 167.931 508.438 166.983 508.646 165.721C508.646 165.721 508.685 165.523 508.715 165.198C509.06 162.81 508.863 159.722 508.271 159.011Z" fill="#003862"/>
<path d="M505.845 178.764C505.845 178.764 504.632 180.353 502.057 182.05L503.655 184.517L506.387 179.623L505.845 178.764Z" fill="white"/>
<path d="M498.181 179.129C498.181 179.129 499.72 181.063 502.057 182.04L500.292 184.586L497.195 180.234L498.181 179.129Z" fill="white"/>
<path d="M641.996 346.873C640.981 347.8 640.793 349.27 639.679 349.921C639.353 350.109 638.722 350.306 637.973 350.434C636.612 350.681 634.876 350.73 634.037 350.237C633.751 350.069 633.564 349.842 633.525 349.527C633.327 347.82 635.862 345.906 636.976 345.047C637.667 344.524 638.377 343.301 638.939 342.176C639.294 341.475 639.59 340.814 639.787 340.38C639.797 340.39 639.856 340.499 640.014 340.617C640.241 340.785 640.675 340.943 641.444 340.824C642.509 340.647 642.924 340.37 643.052 340.262L643.072 340.242L643.091 340.222L643.101 340.213C643.318 341.278 643.673 342.373 643.801 342.886C644.245 344.682 642.953 345.994 641.996 346.873Z" fill="#131C24"/>
<path d="M625.319 270.781C625.319 270.781 621.729 283.311 621.098 286.508C620.467 289.705 618.711 305.196 618.524 307.83C618.336 310.465 615.683 322.808 615.555 323.745C614.559 330.721 613.395 340.39 613.395 340.39C613.395 340.39 615.664 343.074 616.739 340.311C620.506 330.622 622.419 328.836 623.248 322.413C624.875 309.744 626.532 309.853 627.094 308.373C632.716 293.415 633.653 284.89 634.412 284.012C635.162 283.134 635.27 284.456 635.704 286.4C636.138 288.343 635.527 301.723 636.316 306.883C636.75 309.695 637.716 316 638.032 319.631C638.347 323.271 639.985 340.094 639.985 340.094C639.985 340.094 642.016 342.896 643.081 340.232C643.18 339.986 645.113 324.455 645.182 320.124C645.241 315.802 643.338 315.181 644.866 306.804C648.151 288.847 647.697 285.758 643.86 272.853C634.471 241.299 625.319 270.781 625.319 270.781Z" fill="#B98F8F"/>
<path d="M643.949 269.715C643.949 269.715 649.65 281.535 645.823 305.502C645.823 305.502 634.195 304.416 616.748 303.163C616.748 303.163 624.688 270.909 624.905 268.867C625.122 266.814 643.949 269.715 643.949 269.715Z" fill="#11013C"/>
<path d="M639.984 340.104C639.984 340.104 638.732 341.86 638.87 342.127C638.998 342.393 641.592 342.807 642.036 342.186C642.48 341.564 643.091 340.232 643.091 340.232C643.091 340.232 640.685 341.416 639.984 340.104Z" fill="#0F3A5E"/>
<path d="M615.447 346.567C614.135 346.961 613.74 349.191 612.626 349.852C611.511 350.513 606.058 350.967 605.86 349.26C605.663 347.553 608.148 346.024 609.263 345.166C610.377 344.317 612.882 341.505 613.395 340.39C613.395 340.39 613.849 341.101 615.18 340.883C616.512 340.666 616.739 340.311 616.739 340.311C616.689 341.633 617.153 342.571 617.281 343.084C617.745 344.86 616.758 346.172 615.447 346.567Z" fill="#131C24"/>
<path d="M603.888 248.512C603.888 248.512 602.616 247.347 602.911 246.41C603.158 245.611 602.901 244.407 602.823 244.032C602.714 243.529 602.971 241.881 602.339 242.01C601.708 242.138 601.797 244.703 601.708 245.256C601.619 245.798 600.012 243.934 599.45 243.825C598.887 243.717 595.948 246.558 597.201 247.703C598.454 248.857 600.554 249.262 600.732 249.508C600.909 249.755 601.61 250.386 601.61 250.386L603.888 248.512Z" fill="#B98F8F"/>
<path d="M599.805 244.022C599.805 244.022 595.741 240.747 595.288 240.757C594.834 240.766 594.666 240.993 595.041 241.319C595.406 241.645 598.878 244.595 598.878 244.595C598.878 244.595 593.414 241.536 593.039 241.457C592.822 241.418 592.477 241.842 592.654 242.029C592.832 242.217 598.079 245.562 598.079 245.562C598.079 245.562 592.97 242.71 592.645 242.74C592.359 242.769 592.142 243.243 592.506 243.48C592.871 243.717 597.457 246.627 597.457 246.627C597.457 246.627 593.611 244.782 593.345 244.979C593.187 245.098 592.871 245.453 593.877 245.897C594.883 246.341 597.152 247.643 597.152 247.643L599.805 244.022ZM665.952 232.991C665.952 232.991 667.225 231.827 666.929 230.89C666.682 230.091 666.939 228.887 667.018 228.512C667.126 228.009 666.87 226.361 667.501 226.489C668.132 226.618 668.043 229.183 668.132 229.735C668.221 230.278 669.828 228.413 670.391 228.305C670.953 228.196 673.882 231.038 672.639 232.182C671.387 233.337 669.286 233.741 669.108 233.988C668.931 234.235 668.231 234.866 668.231 234.866L665.952 232.991Z" fill="#B98F8F"/>
<path d="M670.036 228.502C670.036 228.502 674.099 225.226 674.553 225.236C675.006 225.246 675.174 225.473 674.799 225.799C674.434 226.124 670.963 229.074 670.963 229.074C670.963 229.074 676.426 226.016 676.801 225.937C677.018 225.897 677.363 226.322 677.186 226.509C677.008 226.697 671.761 230.041 671.761 230.041C671.761 230.041 676.87 227.19 677.196 227.219C677.482 227.249 677.699 227.723 677.334 227.959C676.969 228.196 672.383 231.107 672.383 231.107C672.383 231.107 676.229 229.262 676.495 229.459C676.653 229.578 676.969 229.933 675.963 230.377C674.957 230.821 672.689 232.123 672.689 232.123L670.036 228.502Z" fill="#B98F8F"/>
<path d="M632.361 212.045C632.361 212.045 636.621 211.601 638.16 215.715C639.698 219.839 641.138 221.181 641.326 223.352C642.056 232.103 646.149 230.13 644.995 235.172C643.851 240.214 643.052 240.983 643.052 240.983L633.278 239.069L623.386 239.099C623.386 239.099 627.262 237.165 626.394 233.041C625.536 228.917 623.386 222.168 624.599 217.57C625.812 212.962 629.816 212.39 632.361 212.045Z" fill="#131C24"/>
<path d="M669.158 234.955C669.01 234.797 659.887 240.934 658.891 241.506C656.938 242.641 654.808 242.582 652.599 242.71C650.113 242.858 647.302 242.602 644.866 243.085C643.604 243.342 643.456 243.667 642.795 245.009C641.01 248.66 640.428 253.208 640.192 257.224C639.945 261.417 641.553 264.328 643.239 268.028C643.811 269.281 644.541 270.347 643.93 271.393C643.21 272.636 640.547 272.971 639.235 273.139C636.01 273.563 631.246 273.188 627.952 272.537C622.429 271.442 624.826 266.173 624.421 262.828C624.145 260.589 623.07 257.234 622.449 255.063C621.837 252.922 621.768 252.024 621.887 249.745C620.703 253.119 619.944 258.28 616.748 260.421C614.273 262.078 611.827 260.45 610.052 258.901C606.679 255.971 603.316 253.031 599.943 250.1C600.663 249.439 601.383 248.778 602.093 248.107C602.329 247.89 602.339 247.831 602.615 247.614C603.247 247.111 603.168 246.923 603.819 247.367C604.253 247.663 605.416 248.749 605.791 249.094C607.014 250.229 608.079 250.919 609.302 252.054C610.367 253.041 613.218 254.609 613.622 254.254C614.687 253.346 615.407 251.363 615.841 250.229C617.034 247.071 618.248 243.884 619.668 240.816C621.196 237.53 624.569 235.794 627.844 234.481C630.684 233.347 634.481 233.574 637.351 234.304C639.373 234.817 640.093 234.846 642.095 235.409C644.018 235.942 645.813 236.622 647.756 237.027C650.025 237.501 652.342 237.658 654.66 237.688C656.484 237.708 657.234 237.402 658.763 236.336C660.824 234.906 664.542 231.768 666.771 230.545C667.304 230.288 668.783 233.386 669.158 234.955Z" fill="#618930"/>
<path d="M635.418 233.593C635.093 231.847 635.31 229.153 635.31 229.153C635.31 229.153 629.363 227.9 629.619 230.002C629.787 231.393 629.461 233.011 629.224 233.949C628.593 234.166 628.218 234.353 628.218 234.353C627.242 239.109 630.862 242.315 630.862 242.315C634.521 240.934 637.351 234.333 637.351 234.333C636.7 233.988 636.049 233.761 635.418 233.593Z" fill="#B98F8F"/>
<path d="M632.923 214.452C632.923 214.452 638.574 215.271 637.746 223.608C636.917 231.946 631.937 231.285 631.601 231.285C631.266 231.275 626.601 231.462 626.197 221.28C626.197 221.27 626.009 213.742 632.923 214.452Z" fill="#B98F8F"/>
<path d="M632.282 217.471C632.282 217.471 634.925 220.244 636.148 221.655C637.371 223.066 637.519 225.779 637.519 225.779C637.519 225.779 639.58 223.253 638.722 220.313C637.854 217.373 635.813 211.66 630.645 213.416C625.477 215.172 625.28 222.898 625.891 226.736C625.871 226.726 628.199 218.27 632.282 217.471Z" fill="#131C24"/>
<path fill-rule="evenodd" clip-rule="evenodd" d="M275.309 326.804H283.721V492.731H275.309V326.804Z" fill="#1289CC"/>
<path d="M271.176 326.804H279.589V492.731H271.176V326.804Z" fill="black"/>
<path fill-rule="evenodd" clip-rule="evenodd" d="M302.46 326.804H310.833V492.731H302.46V326.804Z" fill="#1289CC"/>
<path d="M298.328 326.804H306.701V492.731H298.328V326.804Z" fill="black"/>
<path fill-rule="evenodd" clip-rule="evenodd" d="M97.1624 326.804H105.575V492.731H97.1624V326.804Z" fill="#125CAE"/>
<path d="M93.0398 326.804H101.453V492.731H93.0398V326.804Z" fill="black"/>
<path fill-rule="evenodd" clip-rule="evenodd" d="M124.324 326.804H132.707V492.731H124.324V326.804Z" fill="#1289CC"/>
<path d="M120.191 326.804H128.565V492.731H120.191V326.804Z" fill="black"/>
<path d="M62.259 319.917H327.087V336.355H62.259V319.917Z" fill="black"/>
<path fill-rule="evenodd" clip-rule="evenodd" d="M180.52 260.776L262.014 255.034L263.316 257.895L252.625 316.227H248.877L168.31 321.18L180.52 260.776Z" fill="url(#paint10_linear_33_636)"/>
<path d="M177.66 255.034H261.728L249.518 315.477H165.46L177.66 255.034Z" fill="black"/>
<path fill-rule="evenodd" clip-rule="evenodd" d="M226.706 315.368H249.775V319.917H226.706V315.368Z" fill="url(#paint11_linear_33_636)"/>
<path fill-rule="evenodd" clip-rule="evenodd" d="M148.99 315.368H226.696V319.917H148.99V315.368Z" fill="#431CA3"/>
<path fill-rule="evenodd" clip-rule="evenodd" d="M180.52 258.536L169.721 311.935H246.638L257.428 258.536H180.52Z" fill="#3F2759"/>
<path fill-rule="evenodd" clip-rule="evenodd" d="M194.673 319.917C197.277 320.242 202.76 319.414 206.666 316.878C210.532 314.352 213.599 311.945 213.599 311.945C213.599 311.945 222.022 313.04 222.564 311.116C222.801 308.541 211.656 305.502 210.098 305.314C208.51 305.137 195.432 306.972 194.101 308.314C192.76 309.655 194.673 319.917 194.673 319.917ZM151.12 312.586C153.724 312.911 159.207 312.083 163.073 309.547C166.94 307.021 170.618 303.331 170.618 303.331C170.618 303.331 179.031 304.13 178.853 303.331C178.636 302.571 168.093 298.161 166.506 297.983C164.957 297.806 151.85 299.651 150.509 300.983C149.167 302.325 151.12 312.586 151.12 312.586Z" fill="white"/>
<path fill-rule="evenodd" clip-rule="evenodd" d="M166.397 302.394C167.226 303.439 172.502 307.376 171.486 308.896C170.47 310.455 168.054 311.096 165.421 309.182C162.787 307.268 161.121 305.028 161.851 304.268C162.57 303.518 166.397 302.394 166.397 302.394Z" fill="white"/>
<path fill-rule="evenodd" clip-rule="evenodd" d="M54.1323 250.337C46.1141 253.593 48.0274 269.054 51.6765 280.144C55.2862 291.234 92.7341 317.421 103.82 320.311C114.905 323.163 157.915 309.725 157.915 309.725C160.845 303.765 158.31 297.441 153.004 298.812C153.004 298.812 111.078 305.383 104.796 298.121C99.7365 292.32 62.614 246.903 54.1323 250.337Z" fill="#0663A9"/>
<path fill-rule="evenodd" clip-rule="evenodd" d="M88.0691 230.249C74.9619 256.652 48.0274 247.841 41.6661 222.592C35.3146 197.373 33.6479 175.597 55.7497 171.769C79.7649 167.615 101.216 203.845 88.0691 230.249Z" fill="url(#paint12_linear_33_636)"/>
<path fill-rule="evenodd" clip-rule="evenodd" d="M47.051 230.831C49.5462 238.675 48.7868 259.691 48.7868 259.691C48.7868 259.691 84.2425 270.021 83.1675 265.255C78.8378 245.927 76.6286 229.025 72.6639 225.483C69.3698 222.592 61.2826 232.311 47.051 230.831Z" fill="white"/>
<path d="M119.314 468.825C119.314 468.825 126.927 478.04 136.79 482.154C146.652 486.269 151.091 488.045 149.503 490.571C147.915 493.097 135.271 491.903 125.744 492.228C116.246 492.554 109.816 493.274 109.49 490.245C109.165 487.246 110.684 470.591 110.684 470.591L119.314 468.825Z" fill="black"/>
<path fill-rule="evenodd" clip-rule="evenodd" d="M105.447 397.153C105.812 407.483 109.313 484.957 109.313 484.957C111.759 487.788 127.953 481.977 129.087 478.05C129.087 478.05 136.03 391.805 133.328 391.411C130.646 391.046 105.447 397.153 105.447 397.153Z" fill="url(#paint13_linear_33_636)"/>
<path d="M202.504 469.19C202.504 469.19 210.118 478.405 219.941 482.559C229.803 486.683 234.241 488.41 232.653 490.975C231.066 493.501 218.422 492.278 208.924 492.603C199.387 492.929 192.967 493.649 192.641 490.65C192.316 487.621 193.835 470.966 193.835 470.966L202.504 469.19Z" fill="black"/>
<path fill-rule="evenodd" clip-rule="evenodd" d="M52.8995 365.974C51.7455 374.026 39.5062 386.635 54.4183 399.245C69.3304 411.854 165.352 401.198 166.575 402.895C167.798 404.563 191.566 486.298 191.566 486.298C191.566 486.298 212.13 485.647 211.045 477.231C203.105 455.307 204.417 385.303 188.351 377.647C172.324 369.99 52.8995 365.974 52.8995 365.974Z" fill="url(#paint14_linear_33_636)"/>
<path fill-rule="evenodd" clip-rule="evenodd" d="M92.2607 252.439C78.5025 248.788 37.3956 245.848 31.8825 257.609C19.0908 284.92 29.2689 389.871 47.0806 391.598C58.5309 392.723 115.339 390.977 117.252 370.355C119.738 343.222 94.6474 303.982 92.2607 252.439Z" fill="#003862"/>
<path fill-rule="evenodd" clip-rule="evenodd" d="M30.7877 338.072H44.7234V407.286H30.7877V338.072Z" fill="white"/>
<path d="M27.8191 337.519H41.7548V406.734H27.8191V337.519Z" fill="black"/>
<path fill-rule="evenodd" clip-rule="evenodd" d="M92.2607 252.439C84.2425 255.695 86.1262 271.185 89.7655 282.275C93.4146 293.326 130.863 319.522 141.948 322.413C153.033 325.265 197.375 319.67 197.375 319.67C200.265 313.711 197.77 307.386 192.424 308.758C192.424 308.758 149.167 307.495 142.885 300.233C137.875 294.411 100.713 249.005 92.2607 252.439Z" fill="#004D87"/>
<path d="M78.325 196.949C75.7607 193.702 82.7631 207.279 80.6328 212.992C80.6723 206.884 65.8686 199.514 71.5692 216.1C72.2595 218.122 73.1176 226.766 73.1176 226.766C72.9696 230.327 54.7635 241.092 48.7473 236.938C43.2934 233.761 34.6637 220.974 29.1407 206.628C23.5782 192.282 33.3323 185.276 33.3323 185.276C33.3323 185.276 32.0008 181.626 36.3995 174.768C39.8316 169.351 90.9588 158.617 88.2171 182.247C87.645 187.121 82.5165 191.344 78.325 196.949Z" fill="black"/>
<path fill-rule="evenodd" clip-rule="evenodd" d="M18.213 281.664H71.2536C75.0901 281.664 78.2559 285.926 78.2559 291.126V330.721C78.2559 335.921 75.0901 340.183 71.2536 340.183H18.213C14.3469 340.183 11.1811 335.921 11.1811 330.721V291.126C11.1811 285.926 14.3469 281.664 18.213 281.664Z" fill="white"/>
<path d="M12.9958 281.782H66.0363C69.8728 281.782 73.0387 286.045 73.0387 291.244V330.839C73.0387 336.039 69.8728 340.301 66.0363 340.301H12.9958C9.12968 340.301 5.96382 336.039 5.96382 330.839V291.244C5.97368 286.045 9.13955 281.782 12.9958 281.782ZM78.2658 410.305H90.7616V480.862H78.2658V410.305Z" fill="black"/>
<path d="M39.9599 479.333H130.705V484.286H39.9599V479.333Z" fill="black"/>
<path d="M128.791 492.159C132.47 492.159 135.439 489.199 135.439 485.549C135.439 481.858 132.48 478.898 128.791 478.898C125.142 478.898 122.184 481.858 122.184 485.549C122.184 489.199 125.142 492.159 128.791 492.159ZM83.7099 492.011C87.3886 492.011 90.3572 489.051 90.3572 485.401C90.3572 481.72 87.3985 478.75 83.7099 478.75C80.0608 478.75 77.102 481.71 77.102 485.401C77.102 489.051 80.0608 492.011 83.7099 492.011ZM40.2459 492.159C43.895 492.159 46.8932 489.199 46.8932 485.549C46.8932 481.858 43.895 478.898 40.2459 478.898C36.5967 478.898 33.5985 481.858 33.5985 485.549C33.5985 489.199 36.5967 492.159 40.2459 492.159ZM25.9255 399.245H143.072C147.51 399.245 151.12 402.856 151.12 407.266C151.12 411.716 147.51 415.318 143.072 415.318H25.9255C21.517 415.318 17.9073 411.706 17.9073 407.266C17.9172 402.866 21.5268 399.245 25.9255 399.245Z" fill="black"/>
<path fill-rule="evenodd" clip-rule="evenodd" d="M45.9069 250.396C46.0845 248.087 47.7216 241.575 47.7216 241.575C47.7216 241.575 74.3011 239.77 80.6131 242.73C81.6092 243.194 87.7437 252.251 87.7437 252.251C70.9873 249.212 56.6571 249.074 45.9069 250.396Z" fill="#BCD8FA"/>
<path fill-rule="evenodd" clip-rule="evenodd" d="M180.52 258.536H257.428L256.945 260.934L180.007 261.082L180.52 258.536ZM246.244 266.854C246.244 267.219 245.948 267.505 245.593 267.505H184.781C184.695 267.505 184.611 267.488 184.532 267.456C184.453 267.423 184.381 267.375 184.321 267.314C184.26 267.254 184.212 267.182 184.179 267.103C184.147 267.024 184.13 266.939 184.13 266.854C184.13 266.768 184.147 266.684 184.179 266.605C184.212 266.526 184.26 266.454 184.321 266.393C184.381 266.333 184.453 266.285 184.532 266.252C184.611 266.22 184.695 266.203 184.781 266.203H245.593C245.948 266.203 246.244 266.499 246.244 266.854ZM234.3 270.574C234.3 270.939 234.064 271.225 233.768 271.225H183.913C183.617 271.225 183.38 270.929 183.38 270.574C183.38 270.209 183.617 269.922 183.913 269.922H233.768C234.054 269.922 234.3 270.218 234.3 270.574ZM233.551 275.162C233.551 275.527 233.314 275.813 233.018 275.813H183.163C182.867 275.813 182.631 275.517 182.631 275.162C182.631 274.797 182.867 274.51 183.163 274.51H233.018C233.314 274.51 233.551 274.806 233.551 275.162ZM243.759 279.187C243.759 279.552 243.463 279.838 243.108 279.838H182.226C182.141 279.838 182.056 279.822 181.977 279.789C181.898 279.756 181.827 279.708 181.766 279.648C181.706 279.587 181.658 279.515 181.625 279.436C181.592 279.357 181.575 279.273 181.575 279.187C181.575 279.102 181.592 279.017 181.625 278.938C181.658 278.859 181.706 278.787 181.766 278.727C181.827 278.666 181.898 278.618 181.977 278.586C182.056 278.553 182.141 278.536 182.226 278.536H243.108C243.473 278.536 243.759 278.832 243.759 279.187ZM241.51 288.758C241.51 289.123 241.214 289.409 240.859 289.409H179.978C179.805 289.409 179.64 289.34 179.517 289.218C179.395 289.096 179.327 288.931 179.327 288.758C179.327 288.585 179.395 288.42 179.517 288.297C179.64 288.175 179.805 288.107 179.978 288.107H240.859C241.214 288.107 241.51 288.403 241.51 288.758ZM219.467 283.726C219.467 284.091 219.28 284.377 219.063 284.377H181.161C180.934 284.377 180.757 284.081 180.757 283.726C180.757 283.361 180.934 283.075 181.161 283.075H219.063C219.29 283.075 219.467 283.371 219.467 283.726ZM206.804 292.931C206.804 293.297 206.676 293.583 206.508 293.583H179.149C178.992 293.583 178.853 293.287 178.853 292.931C178.853 292.566 178.982 292.28 179.149 292.28H206.508C206.676 292.28 206.804 292.576 206.804 292.931ZM227.683 297.973C227.683 298.338 227.446 298.625 227.16 298.625H178.183C177.897 298.625 177.66 298.329 177.66 297.973C177.66 297.608 177.897 297.322 178.183 297.322H227.16C227.456 297.322 227.683 297.618 227.683 297.973Z" fill="#1E8191"/>
<defs>
<linearGradient id="paint0_linear_33_636" x1="35000.1" y1="24175.9" x2="36111.2" y2="14423.5" gradientUnits="userSpaceOnUse">
<stop stop-color="#C0E7E4"/>
<stop offset="1" stop-color="#39BFB7"/>
</linearGradient>
<linearGradient id="paint1_linear_33_636" x1="3426.41" y1="-24.6321" x2="3286.92" y2="7039.27" gradientUnits="userSpaceOnUse">
<stop stop-color="#88CFDA"/>
<stop offset="0.00834" stop-color="#89CFD9"/>
<stop offset="0.4784" stop-color="#C8D9BB"/>
<stop offset="0.8218" stop-color="#F0DFA7"/>
<stop offset="1" stop-color="#FFE1A0"/>
</linearGradient>
<linearGradient id="paint2_linear_33_636" x1="39406.2" y1="5314.12" x2="39351.9" y2="4892.11" gradientUnits="userSpaceOnUse">
<stop stop-color="#4FD2CA"/>
<stop offset="1" stop-color="#004945"/>
</linearGradient>
<linearGradient id="paint3_linear_33_636" x1="41511.7" y1="7310.04" x2="9140.48" y2="29190.1" gradientUnits="userSpaceOnUse">
<stop stop-color="#7981FF"/>
<stop offset="0.1345" stop-color="#7E85FF"/>
<stop offset="0.2866" stop-color="#8B92FF"/>
<stop offset="0.4472" stop-color="#A2A7FF"/>
<stop offset="0.6137" stop-color="#C2C5FF"/>
<stop offset="0.7832" stop-color="#EAEBFF"/>
<stop offset="0.861" stop-color="white"/>
</linearGradient>
<linearGradient id="paint4_linear_33_636" x1="447.705" y1="1418.77" x2="11286.2" y2="1418.77" gradientUnits="userSpaceOnUse">
<stop stop-color="#88CFDA"/>
<stop offset="0.00834" stop-color="#89CFD9"/>
<stop offset="0.4784" stop-color="#C8D9BB"/>
<stop offset="0.8218" stop-color="#F0DFA7"/>
<stop offset="1" stop-color="#FFE1A0"/>
</linearGradient>
<linearGradient id="paint5_linear_33_636" x1="321.494" y1="1478.79" x2="10951.5" y2="1478.79" gradientUnits="userSpaceOnUse">
<stop stop-color="#88CFDA"/>
<stop offset="0.00834" stop-color="#89CFD9"/>
<stop offset="0.4784" stop-color="#C8D9BB"/>
<stop offset="0.8218" stop-color="#F0DFA7"/>
<stop offset="1" stop-color="#FFE1A0"/>
</linearGradient>
<linearGradient id="paint6_linear_33_636" x1="567.835" y1="1451.81" x2="11687" y2="1451.81" gradientUnits="userSpaceOnUse">
<stop stop-color="#88CFDA"/>
<stop offset="0.00834" stop-color="#89CFD9"/>
<stop offset="0.4784" stop-color="#C8D9BB"/>
<stop offset="0.8218" stop-color="#F0DFA7"/>
<stop offset="1" stop-color="#FFE1A0"/>
</linearGradient>
<linearGradient id="paint7_linear_33_636" x1="359.26" y1="3984.01" x2="3155.23" y2="3984.01" gradientUnits="userSpaceOnUse">
<stop offset="0.0414" stop-color="#10003B"/>
<stop offset="1" stop-color="#090E96"/>
</linearGradient>
<linearGradient id="paint8_linear_33_636" x1="2374.94" y1="220.955" x2="2374.94" y2="9165.21" gradientUnits="userSpaceOnUse">
<stop offset="0.0414" stop-color="#10003B"/>
<stop offset="1" stop-color="#090E96"/>
</linearGradient>
<linearGradient id="paint9_linear_33_636" x1="484.622" y1="2641.19" x2="3705.98" y2="2641.19" gradientUnits="userSpaceOnUse">
<stop stop-color="white"/>
<stop offset="0.0967" stop-color="#7137FF"/>
<stop offset="0.2157" stop-color="#6243FF"/>
<stop offset="0.3464" stop-color="#4957FF"/>
<stop offset="0.4844" stop-color="#2672FF"/>
<stop offset="0.6103" stop-color="#0090FF"/>
</linearGradient>
<linearGradient id="paint10_linear_33_636" x1="168.405" y1="3562.41" x2="9668.86" y2="3562.41" gradientUnits="userSpaceOnUse">
<stop stop-color="#A1BAFF"/>
<stop offset="0.4332" stop-color="white"/>
</linearGradient>
<linearGradient id="paint11_linear_33_636" x1="226.222" y1="542.599" x2="2533.57" y2="542.599" gradientUnits="userSpaceOnUse">
<stop stop-color="#A1BAFF"/>
<stop offset="0.4332" stop-color="white"/>
</linearGradient>
<linearGradient id="paint12_linear_33_636" x1="2581.18" y1="2939.76" x2="4429.14" y2="7844.47" gradientUnits="userSpaceOnUse">
<stop stop-color="#FFD8C5"/>
<stop offset="0.4332" stop-color="white"/>
</linearGradient>
<linearGradient id="paint13_linear_33_636" x1="1532.64" y1="1426.57" x2="1870.31" y2="9190.99" gradientUnits="userSpaceOnUse">
<stop offset="0.0414" stop-color="#100022"/>
<stop offset="1" stop-color="#090E6A"/>
</linearGradient>
<linearGradient id="paint14_linear_33_636" x1="6844.31" y1="3950.79" x2="13507.2" y2="11543.4" gradientUnits="userSpaceOnUse">
<stop offset="0.0414" stop-color="#10003B"/>
<stop offset="0.2646" stop-color="#10013E"/>
<stop offset="0.4594" stop-color="#0F0249"/>
<stop offset="0.6435" stop-color="#0E055B"/>
<stop offset="0.8211" stop-color="#0C0974"/>
<stop offset="0.9926" stop-color="#090E94"/>
<stop offset="1" stop-color="#090E96"/>
</linearGradient>
</defs>
</svg>
